<svg xmlns="http://www.w3.org/2000/svg" width="148.288" height="46" viewBox="0 0 148.288 46"><g transform="translate(-82.057 -45.007)"><path d="M102.571,45.294,84.265,90.628h36.612Z" transform="translate(2.921 0.38)" fill="#f28488"/><rect width="10.455" height="40.334" transform="translate(128.454 50.674)" fill="#f28488"/><path d="M109.015,51.691V76.28c0,4.619,4.891,8.364,10.924,8.364s10.924-3.745,10.924-8.364V51.691Z" transform="translate(36.335 6.363)" fill="#f28488"/><path d="M132.954,66.125,144.8,57.348c-2.4-4.538-6.6-7.554-11.391-7.554-7.469,0-13.522,7.312-13.522,16.331s6.053,16.331,13.522,16.331c4.791,0,8.989-3.016,11.391-7.554Z" transform="translate(54.034 8.551)" fill="#f28488"/><path d="M98.7,45.007,82.057,86.23h33.29Z" transform="translate(0)" fill="#2db2a4" style="mix-blend-mode:darken;isolation:isolate"/><ellipse cx="13.522" cy="16.331" rx="13.522" ry="16.331" transform="translate(203.3 58.345)" fill="#f28488"/></g></svg>