<svg xmlns="http://www.w3.org/2000/svg" viewBox="0 0 142.64 69.71"><defs><style>.cls-1{fill:#141414;}</style></defs><g><g><circle class="cls-1" cx="79.65" cy="35.23" r="18.51"/><circle class="cls-1" cx="124.03" cy="35.23" r="18.51"/><path class="cls-1" d="M18.87,16.72A18.36,18.36,0,0,0,9.3,19.19h0L9.24,4.86c0-.08,0-.15,0-.23A4.63,4.63,0,0,0,0,4.63v30.6A18.52,18.52,0,1,0,18.87,16.72Z"/><rect class="cls-1" x="43.6" y="1.01" width="10.53" height="52.74" rx="5.26"/><path class="cls-1" d="M138.8,56.14a7,7,0,0,0-4,1.16A21.15,21.15,0,0,1,124,60.83a21.18,21.18,0,0,1-10.78-3.53,7,7,0,0,0-4-1.16,3.84,3.84,0,0,0-3.79,4.45c.61,4.34,8.24,9.12,17.63,9.12H125c9.4,0,17-4.78,17.63-9.12A3.84,3.84,0,0,0,138.8,56.14Z"/></g></g></svg>